# xmcd CD database file
#
# Track frame offsets:
#	150
#	15927
#	29897
#	44957
#	59127
#	73805
#	87375
#	100615
#	114000
#	128685
#	142255
#	153445
#	165550
#	180220
#	194715
#	208300
#	222702
#	237657
#	251762
#	266465
#
# Disc length: 3735 seconds
#
# Revision: 0
# Processed by: cddbd v1.5.1PL0 Copyright (c) Steve Scherf et al.
# Submitted via: CDex 1.51
#
DISCID=3a0e9514
DTITLE=Various Artist - First Crooners, Volume One: The Twenties
DYEAR=1994
DGENRE=Jazz
TTITLE0=Gene Austin/Sentimental Baby
TTITLE1=Les Backer/What A Night What A Girl
TTITLE2=Sam Coslow/The Spell Of The Blues
TTITLE3=Bing Crosby/Gay Love
TTITLE4=Segar Ellis/Blue Shadows
TTITLE5=Sammy Fain/My Sweeter Than Sweet
TTITLE6=Chester Gaylord/Reaching For Someone
TTITLE7=Art Gillham/Hollywood
TTITLE8=Charles W Hamp/Perhaps
TTITLE9=Irving Kaufman/You Were Meant For Me
TTITLE10=Charles King/Broadway Melody
TTITLE11=Charles C Locke/Honey
TTITLE12=Nick Lucas/The Song I Love
TTITLE13=Red McKenzie/I Gotta Have You
TTITLE14=Dick Powell/Suppose Nobody Cared
TTITLE15=Dick Robertson/Some Sweet Day
TTITLE16=Willard Robison/Peace Of Mind
TTITLE17=Jack Smith/Glad Rag Doll
TTITLE18=Eddie Thomas/You're Just Another Memory
TTITLE19=Rudy Valee/If I Had You
EXTD=YEAR: 1994
EXTT0=
EXTT1=
EXTT2=
EXTT3=
EXTT4=
EXTT5=
EXTT6=
EXTT7=
EXTT8=
EXTT9=
EXTT10=
EXTT11=
EXTT12=
EXTT13=
EXTT14=
EXTT15=
EXTT16=
EXTT17=
EXTT18=
EXTT19=
PLAYORDER=
